<?xml version="1.0" encoding="UTF-8" ?>
<!DOCTYPE svg PUBLIC "-//W3C//DTD SVG 1.1//EN" "http://www.w3.org/Graphics/SVG/1.1/DTD/svg11.dtd">
<svg width="234pt" height="233pt" viewBox="0 0 234 233" version="1.1" xmlns="http://www.w3.org/2000/svg">
<g id="#ffffffff">
</g>
<g id="#000000ff">
<path fill="#000000" opacity="1.00" d=" M 80.50 42.57 C 93.01 42.40 105.53 42.56 118.05 42.49 C 125.03 42.41 132.13 43.00 138.77 45.31 C 151.60 49.60 162.56 59.12 168.62 71.22 C 176.14 86.04 175.90 104.55 167.92 119.14 C 164.91 124.92 160.61 129.91 155.77 134.24 C 160.44 140.93 165.14 147.60 169.80 154.30 C 173.40 159.33 174.68 166.01 172.91 171.97 C 170.69 180.71 162.02 187.19 153.03 187.04 C 146.48 187.24 140.07 183.91 136.27 178.61 C 128.75 168.03 121.44 157.30 113.89 146.76 C 109.97 146.16 105.96 146.66 102.00 146.50 C 102.00 153.33 102.00 160.16 102.01 166.98 C 102.12 174.14 97.97 181.05 91.85 184.66 C 85.32 188.55 76.67 188.55 70.15 184.65 C 64.03 181.05 59.91 174.15 59.99 167.02 C 60.02 132.00 59.98 96.99 60.01 61.98 C 60.42 51.45 70.06 42.63 80.50 42.57 M 83.04 43.46 C 92.10 43.65 99.77 51.35 101.22 60.06 C 102.58 67.39 99.66 75.37 93.74 79.94 C 87.09 85.32 77.01 85.80 69.84 81.18 C 65.48 78.56 62.42 74.16 60.96 69.33 C 61.05 101.93 60.98 134.52 61.00 167.11 C 60.94 177.58 70.50 186.81 80.93 186.54 C 91.08 186.88 100.49 178.22 100.98 168.09 C 101.05 160.55 100.96 153.02 101.01 145.49 C 105.09 145.51 109.17 145.46 113.26 145.53 C 110.34 141.79 107.73 137.83 105.00 133.95 C 101.19 128.41 100.40 121.01 102.89 114.77 C 105.67 107.39 113.05 101.95 120.97 101.73 C 127.91 101.25 135.01 104.51 138.97 110.26 C 144.37 117.91 149.69 125.62 155.10 133.26 C 166.46 123.70 173.36 108.90 173.03 94.02 C 173.09 80.44 167.08 67.02 157.18 57.76 C 147.90 48.69 134.99 43.68 122.06 43.54 C 109.05 43.43 96.04 43.59 83.04 43.46 Z" />
</g>
</svg>
